<svg id="_x33_0" enable-background="new 0 0 64 64" height="512" viewBox="0 0 64 64" width="512" xmlns="http://www.w3.org/2000/svg"><g><path d="m51 43h10v14h-10z" fill="#f0bc5e"/><path d="m3 5h14v14h-14z" fill="#f0bc5e"/><g><path d="m3 9h8v2h-8z"/></g><g><path d="m13 9h4v2h-4z"/></g><g><path d="m3 13h14v2h-14z"/></g><g><path d="m3 5h4v2h-4z"/></g><g><path d="m9 5h8v2h-8z"/></g><g><path d="m51 55h2v2h-2z"/></g><g><path d="m55 55h2v2h-2z"/></g><g><path d="m59 55h2v2h-2z"/></g><g><path d="m51 51h10v2h-10z"/></g><path d="m63 9h-6v19h-2v-13h-6v13h-2.264c-1.267-1.811-3.364-3-5.736-3-.355 0-.705.037-1.052.089-.105-.931-.369-1.826-.794-2.672l-1.787.896c.42.838.633 1.743.633 2.687 0 1.238-.373 2.426-1.08 3.435l1.639 1.147c.336-.48.594-.998.815-1.53.905.186 1.626.977 1.626 1.948 0 .492-.18.964-.506 1.33l1.492 1.331c.655-.733 1.014-1.678 1.014-2.661 0-1.878-1.306-3.447-3.054-3.875.345-.074.696-.125 1.054-.125 2.757 0 5 2.243 5 5 0 1.68-.859 3.241-2.25 4.163-.569-.101-1.152-.163-1.75-.163v2c4.411 0 8 3.589 8 8 0 4.349-3.491 7.892-7.817 7.991-.136-.233-.287-.457-.452-.669.806-.907 1.269-2.087 1.269-3.322 0-2.757-2.243-5-5-5v2c1.654 0 3 1.346 3 3 0 .73-.269 1.429-.74 1.97-.94-.611-2.058-.97-3.26-.97-.398 0-.799.04-1.189.118l.393 1.961c.261-.053.529-.079.796-.079 2.206 0 4 1.794 4 4s-1.794 4-4 4-4-1.794-4-4v-13h-2v13c0 2.206-1.794 4-4 4s-4-1.794-4-4 1.794-4 4-4c.267 0 .535.026.797.079l.393-1.961c-.391-.078-.792-.118-1.19-.118-1.202 0-2.32.359-3.26.97-.471-.541-.74-1.24-.74-1.97 0-1.654 1.346-3 3-3v-2c-2.757 0-5 2.243-5 5 0 1.235.463 2.415 1.27 3.322-.165.212-.316.435-.452.669-4.327-.099-7.818-3.642-7.818-7.991 0-4.411 3.589-8 8-8v-2c-.598 0-1.181.062-1.75.163-1.391-.922-2.25-2.483-2.25-4.163 0-2.757 2.243-5 5-5 .358 0 .709.051 1.054.125-1.748.428-3.054 1.997-3.054 3.875 0 .983.359 1.928 1.014 2.661l1.492-1.331c-.326-.366-.506-.838-.506-1.33 0-.971.722-1.767 1.626-1.95.221.533.479 1.052.816 1.532l1.639-1.147c-.708-1.009-1.081-2.197-1.081-3.435 0-.944.213-1.849.633-2.687l-1.787-.896c-.425.846-.689 1.742-.794 2.672-.347-.052-.697-.089-1.052-.089-3.859 0-7 3.14-7 7 0 1.833.729 3.566 1.97 4.855-2.647 1.171-4.694 3.454-5.541 6.257-.473-.067-.949-.112-1.429-.112-5.514 0-10 4.486-10 10s4.486 10 10 10c4.44 0 8.317-2.94 9.573-7.114.174.025.348.052.525.068-.061.341-.098.689-.098 1.046 0 3.309 2.691 6 6 6 2.086 0 3.924-1.071 5-2.69 1.076 1.62 2.914 2.69 5 2.69 3.309 0 6-2.691 6-6 0-.357-.037-.705-.097-1.046 4.069-.366 7.438-3.181 8.63-6.954h9.467v-2h-9.051c.033-.329.051-.662.051-1s-.023-.67-.056-1h3.056v-2h-3.463c-.869-2.75-2.896-4.99-5.507-6.145 1.241-1.289 1.97-3.022 1.97-4.855 0-.695-.105-1.366-.295-2h15.295zm-52.638 36.032c.211-.016.423-.032.638-.032.351 0 .7.027 1.047.072-.028.306-.047.615-.047.928 0 1.422.303 2.774.841 4h-5.403c.759-2.595 2.301-4.344 2.924-4.968zm-3.343 1.039c-.652 1.049-1.282 2.365-1.66 3.929h-1.77c.675-1.661 1.891-3.041 3.43-3.929zm-3.43 9.929c-.377-.927-.589-1.939-.589-3 0-.339.028-.672.069-1h1.97c-.025.326-.039.659-.039 1 0 1.081.137 2.081.359 3zm1.176 2h1.257c.303.719.645 1.363.997 1.929-.866-.5-1.631-1.154-2.254-1.929zm6.868 2.972c-.209.017-.42.028-.633.028-.215 0-.427-.016-.638-.032-.446-.447-1.362-1.471-2.128-2.968h5.531c-.768 1.502-1.688 2.528-2.132 2.972zm-4.195-4.972c-.265-.903-.438-1.904-.438-3 0-.343.02-.675.051-1h6.968c.3.397.622.776.976 1.125-.012 1.047-.178 2.007-.432 2.875zm7.536 3.941c.354-.568.699-1.217 1.005-1.941h1.258c-.629.781-1.394 1.443-2.263 1.941zm3.441-3.941h-1.774c.109-.451.191-.927.253-1.418.547.327 1.126.601 1.734.82-.065.203-.134.403-.213.598zm34.585-28h-2v-11h2zm8 0h-2v-17h2z"/><g><path d="m57 43h4v2h-4z"/></g><g><path d="m3 17h8v2h-8z"/></g><g><path d="m13 17h4v2h-4z"/></g><path d="m42.371 12.515c-.97-1.16-2.278-1.964-3.719-2.312.351-1.053.442-2.189.263-3.35-.429-2.789-2.486-5.01-5.24-5.658-2.134-.5-4.326-.024-6.014 1.312-1.691 1.34-2.661 3.342-2.661 5.493 0 .756.12 1.499.352 2.201-1.442.348-2.752 1.153-3.723 2.313-1.284 1.536-1.849 3.564-1.548 5.563.477 3.194 3.281 5.736 6.522 5.911.815.042 1.627-.049 2.396-.279v9.293c-2.142.078-3.884 1.711-3.999 3.791-.051 1.115.342 2.17 1.105 2.97.762.798 1.791 1.237 2.895 1.237v2c0 1.103.897 2 2 2h2c1.103 0 2-.897 2-2v-2h2c1.103 0 2-.897 2-2v-4c0-1.103-.897-2-2-2h-2v-9.291c.77.23 1.581.326 2.394.279 3.244-.175 6.049-2.717 6.525-5.91.301-1.999-.264-4.028-1.548-5.563zm-15.371 6.485c-1.1 0-2-.9-2-2s.9-2 2-2 2 .9 2 2-.9 2-2 2zm5-9c-1.1 0-2-.9-2-2s.9-2 2-2 2 .9 2 2-.9 2-2 2zm5 9c-1.1 0-2-.9-2-2s.9-2 2-2 2 .9 2 2-.9 2-2 2z" fill="#f0bc5e"/><g><path d="m37 20c-1.654 0-3-1.346-3-3s1.346-3 3-3 3 1.346 3 3-1.346 3-3 3zm0-4c-.552 0-1 .449-1 1s.448 1 1 1 1-.449 1-1-.448-1-1-1z"/></g><g><path d="m27 20c-1.654 0-3-1.346-3-3s1.346-3 3-3 3 1.346 3 3-1.346 3-3 3zm0-4c-.552 0-1 .449-1 1s.448 1 1 1 1-.449 1-1-.448-1-1-1z"/></g><g><path d="m32 11c-1.654 0-3-1.346-3-3s1.346-3 3-3 3 1.346 3 3-1.346 3-3 3zm0-4c-.552 0-1 .449-1 1s.448 1 1 1 1-.449 1-1-.448-1-1-1z"/></g></g></svg>