<?xml version="1.0" encoding="iso-8859-1"?>
<!-- Generator: Adobe Illustrator 19.0.0, SVG Export Plug-In . SVG Version: 6.00 Build 0)  -->
<svg version="1.1" id="Capa_1" xmlns="http://www.w3.org/2000/svg" xmlns:xlink="http://www.w3.org/1999/xlink" x="0px" y="0px"
	 viewBox="0 0 504.123 504.123" style="enable-background:new 0 0 504.123 504.123;" xml:space="preserve">
<circle style="fill:#2EA0DA;" cx="252.062" cy="252.062" r="252.062"/>
<path style="fill:#FFFFFF;" d="M303.262,105.551c-11.815,11.028-28.357,18.117-46.474,18.117s-33.871-7.089-46.474-18.117
	c-20.48,14.178-33.083,37.809-33.083,64.591h159.114C336.345,143.36,322.954,119.729,303.262,105.551z"/>
<path style="fill:#183651;" d="M336.345,178.018H178.018c-4.726,0-7.877-3.151-7.877-7.877c0-28.357,13.391-54.351,36.234-70.892
	c3.151-2.363,7.089-1.575,10.24,0.788c11.028,10.24,25.994,15.754,40.96,15.754c14.966,0,29.145-5.514,40.96-15.754
	c3.151-2.363,7.089-3.151,10.24-0.788c22.843,16.542,36.234,43.323,36.234,70.892C344.222,174.868,341.071,178.018,336.345,178.018z
	 M185.895,162.265H327.68c-2.363-18.117-11.028-34.658-24.418-46.474c-13.391,10.24-29.145,15.754-46.474,15.754
	c-16.542,0-33.083-5.514-46.474-15.754C196.923,127.606,188.258,144.148,185.895,162.265z"/>
<ellipse style="fill:#F06151;" cx="256.788" cy="47.262" rx="39.385" ry="39.385"/>
<path style="fill:#183651;" d="M256.788,94.523c-25.994,0-47.262-21.268-47.262-47.262S230.794,0,256.788,0
	s47.262,21.268,47.262,47.262C304.837,73.255,283.569,94.523,256.788,94.523z M256.788,15.754
	c-17.329,0-31.508,14.178-31.508,31.508s14.178,31.508,31.508,31.508s31.508-14.178,31.508-31.508S274.905,15.754,256.788,15.754z"
	/>
<circle style="fill:#FFFFFF;" cx="420.628" cy="399.36" r="32.295"/>
<path style="fill:#183651;" d="M420.628,440.32c-22.055,0-40.172-18.117-40.172-40.172c0-22.055,18.117-40.172,40.172-40.172
	c22.055,0,40.172,18.117,40.172,40.172C460.8,422.203,443.471,440.32,420.628,440.32z M420.628,374.942
	c-13.391,0-24.418,11.028-24.418,24.418s11.028,24.418,24.418,24.418c13.391,0,24.418-11.028,24.418-24.418
	S434.806,374.942,420.628,374.942z"/>
<path style="fill:#E0E4E8;" d="M420.628,432.443c-35.446,0-63.803,28.357-63.803,63.803h128.394
	C485.218,460.8,456.074,432.443,420.628,432.443z"/>
<path style="fill:#183651;" d="M485.218,504.123H356.825c-4.726,0-7.877-3.151-7.877-7.877c0-39.385,32.295-71.68,71.68-71.68
	s71.68,32.295,71.68,71.68C493.095,500.972,489.157,504.123,485.218,504.123z M365.489,488.369h111.065
	c-3.938-27.569-27.569-48.049-55.926-48.049C393.058,440.32,369.428,460.8,365.489,488.369z"/>
<circle style="fill:#FFFFFF;" cx="432.443" cy="237.883" r="32.295"/>
<path style="fill:#183651;" d="M432.443,278.055c-22.055,0-40.172-18.117-40.172-40.172s18.117-40.172,40.172-40.172
	c22.055,0,40.172,18.117,40.172,40.172S454.498,278.055,432.443,278.055z M432.443,213.465c-13.391,0-24.418,11.028-24.418,24.418
	s11.028,24.418,24.418,24.418c13.391,0,24.418-11.028,24.418-24.418S445.834,213.465,432.443,213.465z"/>
<path style="fill:#E0E4E8;" d="M432.443,270.178c-35.446,0-63.803,28.357-63.803,63.803h128.394
	C496.246,299.323,467.889,270.178,432.443,270.178z"/>
<path style="fill:#183651;" d="M496.246,342.646H367.852c-4.726,0-7.877-3.151-7.877-7.877c0-39.385,32.295-71.68,71.68-71.68
	s71.68,32.295,71.68,71.68C504.123,338.708,500.972,342.646,496.246,342.646z M376.517,326.892h111.065
	c-3.938-27.569-27.569-48.049-55.926-48.049C404.086,278.055,380.455,299.323,376.517,326.892z"/>
<circle style="fill:#FFFFFF;" cx="82.708" cy="399.36" r="32.295"/>
<path style="fill:#183651;" d="M83.495,440.32c-22.055,0-40.172-18.117-40.172-40.172c0-22.055,18.117-40.172,40.172-40.172
	s40.172,18.117,40.172,40.172C123.668,422.203,105.551,440.32,83.495,440.32z M83.495,374.942
	c-13.391,0-24.418,11.028-24.418,24.418s11.028,24.418,24.418,24.418s24.418-11.028,24.418-24.418S96.886,374.942,83.495,374.942z"
	/>
<path style="fill:#E0E4E8;" d="M82.708,432.443c35.446,0,63.803,28.357,63.803,63.803H18.905
	C18.905,460.8,48.049,432.443,82.708,432.443z"/>
<path style="fill:#183651;" d="M147.298,504.123L147.298,504.123H18.905c-4.726,0-7.877-3.151-7.877-7.877
	c0-39.385,32.295-71.68,71.68-71.68s70.892,31.508,71.68,70.105c0,0.788,0,0.788,0,1.575
	C155.175,500.972,152.025,504.123,147.298,504.123z M27.569,488.369h111.065c-3.938-27.569-27.569-48.049-55.926-48.049
	S31.508,460.8,27.569,488.369z"/>
<circle style="fill:#FFFFFF;" cx="71.68" cy="237.883" r="32.295"/>
<path style="fill:#183651;" d="M71.68,278.055c-22.055,0-40.172-18.117-40.172-40.172s18.117-40.172,40.172-40.172
	s40.172,18.117,40.172,40.172C112.64,259.938,94.523,278.055,71.68,278.055z M71.68,213.465c-13.391,0-24.418,11.028-24.418,24.418
	s11.028,24.418,24.418,24.418s24.418-11.028,24.418-24.418C96.886,224.492,85.858,213.465,71.68,213.465z"/>
<path style="fill:#E0E4E8;" d="M71.68,270.178c35.446,0,63.803,28.357,63.803,63.803H7.877
	C7.877,299.323,36.234,270.178,71.68,270.178z"/>
<path style="fill:#183651;" d="M136.271,342.646L136.271,342.646H7.877c-4.726,0-7.877-3.151-7.877-7.877
	c0-39.385,32.295-71.68,71.68-71.68s70.892,31.508,71.68,70.105c0,0.788,0,0.788,0,1.575
	C144.148,338.708,140.997,342.646,136.271,342.646z M16.542,326.892h111.065c-3.938-27.569-27.569-48.049-55.926-48.049
	S20.48,299.323,16.542,326.892z"/>
<polygon style="fill:#FBBD5E;" points="308.775,496.246 205.588,496.246 153.6,170.142 360.763,170.142 "/>
<path style="fill:#183651;" d="M308.775,504.123H205.588c-3.938,0-7.089-3.151-7.877-6.302l-51.988-326.105
	c0-2.363,0-4.726,1.575-6.302c1.575-1.575,3.938-3.151,6.302-3.151h206.375c2.363,0,4.726,0.788,6.302,3.151
	c1.575,1.575,2.363,3.938,1.575,6.302l-51.988,326.105C315.865,500.972,312.714,504.123,308.775,504.123z M211.889,488.369h89.797
	l48.837-310.351H163.052L211.889,488.369z"/>
<polygon style="fill:#FFFFFF;" points="233.945,464.738 199.286,208.738 315.077,208.738 280.418,464.738 "/>
<g>
	<rect x="248.911" y="270.178" style="fill:#183651;" width="15.754" height="15.754"/>
	<rect x="248.911" y="329.255" style="fill:#183651;" width="15.754" height="15.754"/>
	<rect x="248.911" y="387.545" style="fill:#183651;" width="15.754" height="15.754"/>
</g>
<g>
</g>
<g>
</g>
<g>
</g>
<g>
</g>
<g>
</g>
<g>
</g>
<g>
</g>
<g>
</g>
<g>
</g>
<g>
</g>
<g>
</g>
<g>
</g>
<g>
</g>
<g>
</g>
<g>
</g>
</svg>
