<?xml version="1.0" encoding="iso-8859-1"?>
<!-- Generator: Adobe Illustrator 19.0.0, SVG Export Plug-In . SVG Version: 6.00 Build 0)  -->
<svg version="1.1" id="Capa_1" xmlns="http://www.w3.org/2000/svg" xmlns:xlink="http://www.w3.org/1999/xlink" x="0px" y="0px"
	 viewBox="0 0 512 512" style="enable-background:new 0 0 512 512;" xml:space="preserve">
<path style="fill:#FCD2BE;" d="M179.998,308.847v94.071c0,43.111-34.963,78.074-78.087,78.074c-11.551,0-22.506-2.509-32.367-7.005
	v-0.012c-23.86-10.88-41.285-33.423-44.974-60.351c-3.466-1.217-6.719-3.204-9.501-5.986c-9.836-9.824-9.836-25.772,0-35.597
	c9.824-9.85,25.784-9.85,35.622,0l6.558-37.596l4.472-25.599h118.277V308.847z"/>
<path style="fill:#FAB998;" d="M69.543,473.976c-23.86-10.88-41.285-33.423-44.974-60.351c-3.466-1.217-6.719-3.204-9.501-5.986
	c-9.836-9.824-9.836-25.772,0-35.597c9.824-9.85,25.784-9.85,35.622,0l6.558-37.596l20.556,4.173
	C69.159,353.561,32.655,408.099,69.543,473.976z"/>
<path style="fill:#F9CE55;" d="M216.501,270.779c0,37.472-30.38,67.84-67.84,67.84H77.803v6.297
	c0,14.979-12.147,27.114-27.126,27.114c-7.254-7.254-17.848-9.154-26.84-5.701v-27.71c0-37.46,30.38-67.84,67.84-67.84H216.501z"/>
<path style="fill:#E2A11E;" d="M147.045,270.779H91.677c-37.46,0-67.84,30.38-67.84,67.84v27.71
	c8.993-3.452,19.587-1.552,26.84,5.701c14.979,0,27.126-12.134,27.126-27.114v-6.297h1.402
	C79.205,301.159,109.585,270.779,147.045,270.779z"/>
<path style="fill:#3FACC9;" d="M262.02,64.264H69.399c-12.213,0-22.114,9.901-22.114,22.114v97.266
	c0,12.213,9.901,22.114,22.114,22.114h108.614v39.988l35.665-39.988h48.342c12.213,0,22.114-9.901,22.114-22.114V86.378
	C284.134,74.165,274.233,64.264,262.02,64.264z"/>
<path style="fill:#00C7A9;" d="M264.795,15.048h192.621c12.213,0,22.114,9.901,22.114,22.114v97.266
	c0,12.213-9.901,22.114-22.114,22.114H348.801v39.988l-35.665-39.988h-48.342c-12.213,0-22.114-9.901-22.114-22.114V37.163
	C242.679,24.95,252.58,15.048,264.795,15.048z"/>
<path style="fill:#6B4B3D;" d="M470.987,496.947c0,0-0.133-0.051-0.39-0.164c-4.122-1.856-39.979-19.246-39.979-64.66
	L312.443,315.383c-5.537-20.487-3.835-56.478,47.034-60.62c3.168-0.267,6.532-0.4,10.09-0.4c60.713,0,120.287,4.881,132.889,94.243
	C510.884,408.395,488.972,466.484,470.987,496.947z"/>
<path style="fill:#5B3D2D;" d="M470.987,496.947c0,0-0.133-0.051-0.39-0.164c0.01-0.021,0.01-0.041,0.01-0.062
	c20.508-174.314-58.447-241.958-111.13-241.958c3.168-0.267,6.532-0.4,10.09-0.4c60.713,0,120.287,4.881,132.889,94.243
	C510.884,408.395,488.972,466.484,470.987,496.947z"/>
<path style="fill:#FCD2BE;" d="M464.559,380.532c-2.567,2.566-5.568,4.399-8.764,5.522c-4.033,29.442-25.856,53.201-54.277,60.097
	c-5.464,1.34-11.181,2.039-17.058,2.039c-39.774,0-72.023-32.248-72.023-72.011v-60.796c0,0,31.927,1.145,44.529-11.456
	c18.295,23.748,42.066,27.059,57.829,26.027c0-0.011,0-0.011,0-0.011c10.093-0.664,16.908-3.105,16.908-3.105V347.7l0.011-0.011
	c6.691-6.691,16.462-8.443,24.756-5.258c2.944,1.123,5.705,2.886,8.088,5.269C473.632,356.761,473.632,371.47,464.559,380.532z"/>
<path style="fill:#FAB998;" d="M464.559,380.532c-2.567,2.566-5.568,4.399-8.764,5.522c-4.033,29.442-25.856,53.201-54.277,60.097
	c37.403-20.518,13.599-114.924,13.278-116.197c0-0.011,0-0.011,0-0.011c10.093-0.664,16.908-3.105,16.908-3.105v20.861l0.011-0.011
	c6.691-6.691,16.462-8.443,24.756-5.258c2.944,1.123,5.705,2.886,8.088,5.269C473.632,356.761,473.632,371.47,464.559,380.532z"/>
<path d="M121.049,384.674v-12.915c0-4.247-3.443-7.69-7.69-7.69s-7.69,3.443-7.69,7.69v12.915c0,4.247,3.443,7.69,7.69,7.69
	S121.049,388.921,121.049,384.674z"/>
<path d="M139.244,371.759v12.915c0,4.247,3.443,7.69,7.69,7.69s7.69-3.443,7.69-7.69v-12.915c0-4.247-3.443-7.69-7.69-7.69
	S139.244,367.511,139.244,371.759z"/>
<path d="M91.624,421.052c-2.107-3.687-6.805-4.969-10.493-2.862c-3.687,2.107-4.969,6.804-2.862,10.493
	c7.696,13.469,20.916,21.079,38.228,22.003c0.139,0.007,0.278,0.011,0.416,0.011c4.058,0,7.454-3.179,7.673-7.28
	c0.227-4.241-3.028-7.863-7.269-8.089C105.315,434.687,96.67,429.884,91.624,421.052z"/>
<path d="M216.497,263.094H91.678c-41.645,0-75.526,33.881-75.526,75.526c0,4.247,3.443,7.69,7.69,7.69s7.69-3.443,7.69-7.69
	c0-33.164,26.981-60.146,60.146-60.146h116.64c-3.788,29.545-29.097,52.455-59.656,52.455h-70.86c-4.247,0-7.69,3.443-7.69,7.69
	v6.294c0,9.794-7.285,17.92-16.722,19.241c-9.038-7.221-21.344-9.215-32.294-5.011c-4.296,1.639-8.154,4.149-11.462,7.458
	C3.421,372.805,0,381.059,0,389.84s3.421,17.036,9.63,23.237c2.394,2.393,5.082,4.372,8.026,5.91
	c7.6,40.029,43.072,69.696,84.255,69.696c47.298,0,85.777-38.473,85.777-85.765v-43.906c0-4.247-3.443-7.69-7.69-7.69
	c-4.247,0-7.69,3.443-7.69,7.69v43.906c0,38.811-31.58,70.384-70.396,70.384c-35.003,0-64.977-26.104-69.723-60.722
	c-0.392-2.858-2.35-5.255-5.07-6.212c-2.499-0.878-4.723-2.28-6.616-4.172c-3.303-3.298-5.122-7.686-5.122-12.357
	c0-4.67,1.819-9.058,5.125-12.36c1.771-1.77,3.813-3.105,6.088-3.972c6.429-2.469,13.729-0.928,18.61,3.924
	c1.587,1.617,3.738,2.388,5.852,2.29c18.557-0.195,33.681-14.984,34.411-33.411h63.196c41.645,0,75.526-33.881,75.526-75.526
	C224.188,266.537,220.744,263.094,216.497,263.094z"/>
<path d="M284.134,175.954c-4.248,0-7.69,3.443-7.69,7.69c0,7.953-6.471,14.424-14.424,14.424h-48.341
	c-2.192,0-4.28,0.936-5.739,2.572l-22.235,24.93v-19.811c0-4.247-3.443-7.69-7.69-7.69H69.399c-7.954,0-14.424-6.471-14.424-14.424
	V86.378c0-7.954,6.471-14.424,14.424-14.424h147.064c4.247,0,7.69-3.443,7.69-7.69c0-4.247-3.443-7.69-7.69-7.69H69.399
	c-16.435,0-29.805,13.371-29.805,29.805v97.266c0,16.434,13.371,29.805,29.805,29.805h100.924v32.297c0,3.19,1.97,6.05,4.952,7.186
	c0.892,0.34,1.819,0.504,2.738,0.504c2.15,0,4.252-0.903,5.741-2.572l33.371-37.416h44.896c16.434,0,29.805-13.371,29.805-29.805
	C291.825,179.397,288.381,175.954,284.134,175.954z"/>
<path d="M264.794,164.233h44.896l33.371,37.416c1.489,1.668,3.591,2.572,5.742,2.572c0.919,0,1.846-0.165,2.737-0.504
	c2.982-1.136,4.952-3.996,4.952-7.186v-32.297h100.925c16.434,0,29.805-13.371,29.805-29.805V37.163
	c0-16.435-13.371-29.805-29.805-29.805H439.93c-4.248,0-7.69,3.443-7.69,7.69s3.442,7.69,7.69,7.69h17.486
	c7.954,0,14.424,6.471,14.424,14.424v97.266c0,7.953-6.471,14.424-14.424,14.424H348.801c-4.248,0-7.69,3.443-7.69,7.69v19.811
	l-22.235-24.93c-1.46-1.635-3.548-2.572-5.74-2.572h-48.341c-7.954,0-14.424-6.471-14.424-14.424V37.163
	c0-7.954,6.47-14.424,14.424-14.424h150.528c4.248,0,7.69-3.443,7.69-7.69s-3.442-7.69-7.69-7.69H264.794
	c-16.434,0-29.805,13.371-29.805,29.805v97.266C234.989,150.863,248.36,164.233,264.794,164.233z"/>
<path d="M439.543,46.32h-86.709c-4.248,0-7.69,3.443-7.69,7.69s3.442,7.69,7.69,7.69h86.709c4.248,0,7.69-3.443,7.69-7.69
	S443.791,46.32,439.543,46.32z"/>
<path d="M282.668,61.701h44.53c4.248,0,7.69-3.443,7.69-7.69s-3.442-7.69-7.69-7.69h-44.53c-4.248,0-7.69,3.443-7.69,7.69
	S278.42,61.701,282.668,61.701z"/>
<path d="M439.543,77.849h-26.727c-4.248,0-7.69,3.443-7.69,7.69s3.442,7.69,7.69,7.69h26.727c4.248,0,7.69-3.443,7.69-7.69
	S443.791,77.849,439.543,77.849z"/>
<path d="M282.668,93.23H387.18c4.248,0,7.69-3.443,7.69-7.69s-3.442-7.69-7.69-7.69H282.668c-4.248,0-7.69,3.443-7.69,7.69
	S278.42,93.23,282.668,93.23z"/>
<path d="M282.668,124.758h109.126c4.248,0,7.69-3.443,7.69-7.69s-3.442-7.69-7.69-7.69H282.668c-4.248,0-7.69,3.443-7.69,7.69
	S278.42,124.758,282.668,124.758z"/>
<path d="M84.778,107.84h44.53c4.247,0,7.69-3.443,7.69-7.69c0-4.247-3.443-7.69-7.69-7.69h-44.53c-4.247,0-7.69,3.443-7.69,7.69
	C77.088,104.397,80.531,107.84,84.778,107.84z"/>
<path d="M204.67,107.84c4.247,0,7.69-3.443,7.69-7.69c0-4.247-3.443-7.69-7.69-7.69h-44.53c-4.247,0-7.69,3.443-7.69,7.69
	c0,4.247,3.443,7.69,7.69,7.69H204.67z"/>
<path d="M84.778,123.988c-4.247,0-7.69,3.443-7.69,7.69c0,4.247,3.443,7.69,7.69,7.69h134.76c4.247,0,7.69-3.443,7.69-7.69
	c0-4.247-3.443-7.69-7.69-7.69H84.778z"/>
<path d="M132.387,155.517c-4.247,0-7.69,3.443-7.69,7.69s3.443,7.69,7.69,7.69h61.518c4.247,0,7.69-3.443,7.69-7.69
	s-3.443-7.69-7.69-7.69H132.387z"/>
<path d="M84.778,155.517c-4.247,0-7.69,3.443-7.69,7.69s3.443,7.69,7.69,7.69h21.972c4.247,0,7.69-3.443,7.69-7.69
	s-3.443-7.69-7.69-7.69H84.778z"/>
<path d="M381.597,359.35v-11.912c0-4.247-3.442-7.69-7.69-7.69s-7.69,3.443-7.69,7.69v11.912c0,4.247,3.442,7.69,7.69,7.69
	S381.597,363.597,381.597,359.35z"/>
<path d="M350.628,359.35v-11.912c0-4.247-3.442-7.69-7.69-7.69c-4.248,0-7.69,3.443-7.69,7.69v11.912c0,4.247,3.442,7.69,7.69,7.69
	C347.186,367.041,350.628,363.597,350.628,359.35z"/>
<path d="M362.954,413.564c0.219,4.102,3.612,7.28,7.672,7.28c0.138,0,0.278-0.003,0.417-0.011
	c16.179-0.864,28.54-7.986,35.745-20.594c2.107-3.688,0.826-8.386-2.862-10.493c-3.687-2.107-8.386-0.826-10.492,2.862
	c-4.548,7.958-12.357,12.287-23.213,12.866C365.982,405.701,362.728,409.322,362.954,413.564z"/>
<path d="M510.07,347.531c-4.874-34.556-16.743-59.31-36.287-75.674c-3.256-2.725-8.105-2.298-10.832,0.96
	c-2.726,3.257-2.298,8.107,0.96,10.833c16.494,13.811,26.612,35.409,30.93,66.029c7.226,51.239-8.533,103.064-26.853,136.942
	c-7.683-4.821-20.789-15.398-26.658-34.001c-1.277-4.05-5.6-6.298-9.647-5.02c-4.05,1.278-6.299,5.597-5.02,9.648
	c10.666,33.814,40.143,46.298,41.392,46.813c0.955,0.393,1.946,0.58,2.926,0.58c2.652,0,5.205-1.376,6.626-3.782
	C498.712,465.11,518.323,406.056,510.07,347.531z"/>
<path d="M462.71,391.393c2.669-1.427,5.108-3.241,7.288-5.421c5.843-5.834,9.061-13.598,9.061-21.857
	c0-8.259-3.219-16.022-9.058-21.855c-3.116-3.116-6.745-5.477-10.769-7.011c-6.47-2.484-13.437-2.671-19.834-0.788v-7.626
	c0-2.502-1.218-4.848-3.264-6.289c-2.046-1.44-4.662-1.794-7.022-0.952c-0.394,0.142-39.788,13.753-66.055-20.363
	c-1.349-1.753-3.389-2.84-5.597-2.983c-2.206-0.136-4.37,0.673-5.934,2.236c-6.24,6.239-21.605,8.764-32.915,9.184
	c-2.716-16.25,3.106-26.173,5.973-29.918c7.98-10.422,23.113-15.706,44.979-15.706c25.064,0,51.351,0.711,73.051,9.199
	c3.953,1.546,8.417-0.405,9.964-4.361c1.547-3.955-0.405-8.416-4.36-9.964c-24.194-9.463-52.122-10.255-78.655-10.255
	c-26.906,0-46.148,7.313-57.191,21.737c-13.738,17.944-9.721,40.234-7.357,48.983c0.88,3.256,3.779,5.559,7.149,5.68
	c3.126,0.112,27.639,0.664,43.591-8.659c16.341,17.65,35.561,22.463,49.383,23.259c7.331,0.42,13.864-0.225,18.877-1.079v11.112
	c0,3.142,1.916,5.962,4.832,7.132c2.869,1.15,6.145,0.467,8.319-1.716c4.336-4.325,10.827-5.702,16.567-3.499
	c2.003,0.764,3.816,1.948,5.393,3.525c2.933,2.93,4.55,6.828,4.55,10.976c0,4.147-1.616,8.045-4.553,10.978
	c-1.679,1.679-3.653,2.924-5.874,3.704c-2.72,0.956-4.679,3.354-5.07,6.212c-4.336,31.635-31.727,55.49-63.716,55.49
	c-35.473,0-64.332-28.854-64.332-64.321V341.41c0-4.247-3.442-7.69-7.69-7.69s-7.69,3.443-7.69,7.69v34.769
	c0,43.948,35.759,79.702,79.713,79.702C422.641,455.88,455.534,428.45,462.71,391.393z"/>
<g>
</g>
<g>
</g>
<g>
</g>
<g>
</g>
<g>
</g>
<g>
</g>
<g>
</g>
<g>
</g>
<g>
</g>
<g>
</g>
<g>
</g>
<g>
</g>
<g>
</g>
<g>
</g>
<g>
</g>
</svg>
