<svg height="512pt" viewBox="-34 0 512 512.001" width="512pt" xmlns="http://www.w3.org/2000/svg"><path d="m373.316406 7.5h-303.328125c-13.976562 0-25.308593 11.332031-25.308593 25.308594v134.269531c0 13.976563 11.332031 25.308594 25.308593 25.308594h100.828125c4.398438 0 8.410156 2.578125 10.164063 6.613281 5.871093 13.496094 18.265625 23.496094 33.203125 26.03125-.015625.210938-.03125.421875-.03125.636719v10.667969c0 4.140624 3.359375 7.5 7.5 7.5s7.5-3.359376 7.5-7.5v-10.667969c0-.214844-.015625-.425781-.03125-.636719 14.9375-2.535156 27.332031-12.535156 33.203125-26.03125 1.753906-4.035156 5.765625-6.613281 10.164062-6.613281h100.824219c13.976562 0 25.308594-11.332031 25.308594-25.308594v-134.269531c0-13.976563-11.328125-25.308594-25.304688-25.308594zm0 0" fill="#e9edf1"/><path d="m373.316406 7.5h-8.90625c0 .101562.007813.203125.007813.308594-5.816407 25.925781-19.535157 71.074218-54.429688 116.523437-41.554687 54.125-91.257812 80.183594-116.398437 91.296875 5.820312 4.765625 12.863281 8.089844 20.597656 9.402344-.019531.210938-.03125.421875-.03125.632812v10.667969c0 4.144531 3.355469 7.5 7.5 7.5 4.140625 0 7.5-3.355469 7.5-7.5v-10.667969c0-.210937-.015625-.421874-.035156-.632812 14.9375-2.535156 27.335937-12.535156 33.207031-26.035156 1.753906-4.03125 5.765625-6.609375 10.160156-6.609375h100.828125c13.976563 0 25.304688-11.332031 25.304688-25.308594v-134.269531c0-13.976563-11.328125-25.308594-25.304688-25.308594zm0 0" fill="#dae2e8"/><path d="m47.113281 427.347656c2.878907-.972656 5.449219-2.523437 7.582031-4.503906 4.167969-3.902344 6.6875-9.429688 6.6875-15.402344v-17.792968h35.011719v17.792968c0 5.542969 2.160157 10.707032 5.820313 14.53125 2.289062 2.402344 5.160156 4.273438 8.449218 5.375zm0 0" fill="#fedfc5"/><path d="m96.394531 388.824219v11.171875l-7.972656 4.863281c-5.859375 3.574219-13.207031 3.574219-19.070313 0l-7.96875-4.863281v-11.171875zm0 0" fill="#fecbaa"/><path d="m113.09375 326.457031v42.519531c0 6.414063-3.339844 12.367188-8.800781 15.699219l-15.871094 9.675781c-5.859375 3.574219-13.207031 3.574219-19.070313 0l-15.867187-9.675781c-5.472656-3.332031-8.800781-9.285156-8.800781-15.699219v-42.519531c0-11.699219 9.460937-21.175781 21.128906-21.175781h26.152344c11.667968 0 21.128906 9.476562 21.128906 21.175781zm0 0" fill="#fedfc5"/><path d="m91.964844 305.28125h-13.257813c11.671875 0 21.132813 9.476562 21.132813 21.175781v42.519531c0 6.414063-3.339844 12.367188-8.800782 15.699219l-15.871093 9.675781c-.933594.570313-1.910157 1.039063-2.90625 1.425782 5.261719 2.046875 11.238281 1.578125 16.164062-1.425782l15.867188-9.675781c5.460937-3.332031 8.800781-9.285156 8.800781-15.699219v-42.519531c0-11.699219-9.460938-21.175781-21.128906-21.175781zm0 0" fill="#fecbaa"/><path d="m113.09375 326.457031v19.753907l-42.890625-13.820313c-1.585937-.511719-3.3125-.367187-4.789063.40625l-20.730468 10.832031v-17.171875c0-11.699219 9.460937-21.175781 21.128906-21.175781h26.152344c11.667968 0 21.128906 9.476562 21.128906 21.175781zm0 0" fill="#c97f4c"/><path d="m91.964844 305.28125h-13.25c11.667968 0 21.128906 9.476562 21.128906 21.175781v15.484375l13.25 4.269532v-19.753907c0-11.699219-9.460938-21.175781-21.128906-21.175781zm0 0" fill="#aa6344"/><path d="m13.414062 504.667969c-3.261718 0-5.90625-2.648438-5.90625-5.910157v-29.691406c0-16.953125 10.792969-32.011718 26.832032-37.417968l12.773437-4.300782c2.882813-.96875 5.449219-2.527344 7.578125-4.507812 6.855469 2.488281 14.929688 4.167968 24.054688 3.972656 8.988281-.195312 16.847656-2.167969 23.464844-4.835938 2.289062 2.402344 5.164062 4.265626 8.453124 5.371094l12.773438 4.300782c16.03125 5.40625 26.835938 20.464843 26.835938 37.417968v35.601563zm0 0" fill="#69d998"/><path d="m78.0625 426.925781-15.023438 53.132813c-.386718 1.371094-.046874 2.84375.90625 3.90625l11.175782 12.472656c1.59375 1.78125 4.355468 1.847656 6.039062.152344l12.4375-12.550782c1.085938-1.09375 1.476563-2.695312 1.015625-4.167968zm0 0" fill="#3dc5a1"/><path d="m332.640625 427.347656c2.882813-.972656 5.453125-2.523437 7.582031-4.503906 4.167969-3.902344 6.691406-9.429688 6.691406-15.402344v-17.792968h35.007813v17.792968c0 5.542969 2.160156 10.707032 5.820313 14.53125 2.289062 2.402344 5.160156 4.273438 8.449218 5.375zm0 0" fill="#fedfc5"/><path d="m381.921875 388.824219v11.171875l-7.96875 4.863281c-5.859375 3.574219-13.210937 3.574219-19.070313 0l-7.96875-4.863281v-11.171875zm0 0" fill="#fecbaa"/><path d="m398.621094 326.457031v42.519531c0 6.414063-3.339844 12.367188-8.796875 15.699219l-15.871094 9.675781c-5.859375 3.574219-13.210937 3.574219-19.070313 0l-15.871093-9.675781c-5.46875-3.332031-8.800781-9.285156-8.800781-15.699219v-42.519531c0-11.699219 9.460937-21.175781 21.132812-21.175781h26.148438c11.671874 0 21.128906 9.476562 21.128906 21.175781zm0 0" fill="#fedfc5"/><path d="m377.492188 305.28125h-13.253907c11.667969 0 21.128907 9.476562 21.128907 21.175781v42.519531c0 6.414063-3.339844 12.367188-8.800782 15.699219l-15.867187 9.675781c-.9375.570313-1.910157 1.039063-2.910157 1.425782 5.261719 2.046875 11.238282 1.578125 16.164063-1.425782l15.871094-9.675781c5.460937-3.332031 8.800781-9.285156 8.800781-15.699219v-42.519531c-.003906-11.699219-9.460938-21.175781-21.132812-21.175781zm0 0" fill="#fecbaa"/><path d="m398.621094 326.457031v19.753907l-42.886719-13.820313c-1.589844-.511719-3.3125-.367187-4.792969.40625l-20.730468 10.832031v-17.171875c0-11.699219 9.460937-21.175781 21.132812-21.175781h26.148438c11.671874 0 21.128906 9.476562 21.128906 21.175781zm0 0" fill="#c97f4c"/><path d="m377.492188 305.28125h-13.25c11.671874 0 21.128906 9.476562 21.128906 21.175781v15.484375l13.25 4.269532v-19.753907c0-11.699219-9.457032-21.175781-21.128906-21.175781zm0 0" fill="#aa6344"/><path d="m298.941406 504.667969c-3.261718 0-5.90625-2.648438-5.90625-5.910157v-29.691406c0-16.953125 10.796875-32.011718 26.835938-37.417968l12.773437-4.300782c2.882813-.96875 5.445313-2.527344 7.574219-4.507812 6.859375 2.488281 14.929688 4.167968 24.058594 3.972656 8.984375-.195312 16.84375-2.167969 23.460937-4.835938 2.289063 2.402344 5.164063 4.265626 8.457031 5.371094l12.773438 4.300782c16.027344 5.40625 26.832031 20.464843 26.832031 37.417968v28.957032c0 3.671874-2.972656 6.644531-6.636719 6.644531zm0 0" fill="#69d998"/><path d="m363.589844 426.925781-15.023438 53.132813c-.386718 1.371094-.042968 2.84375.90625 3.90625l11.179688 12.472656c1.59375 1.78125 4.355468 1.847656 6.035156.152344l12.441406-12.550782c1.082032-1.09375 1.472656-2.695312 1.011719-4.167968zm0 0" fill="#3dc5a1"/><path d="m182.535156 409.476562c3.542969-1.195312 6.707032-3.105468 9.332032-5.546874 5.132812-4.804688 8.234374-11.605469 8.234374-18.957032v-21.90625h43.101563v21.90625c0 6.824219 2.660156 13.179688 7.164063 17.886719 2.820312 2.957031 6.355468 5.261719 10.40625 6.617187zm0 0" fill="#fedfc5"/><path d="m243.203125 362.054688v13.75l-9.8125 5.988281c-7.214844 4.398437-16.261719 4.398437-23.476563 0l-9.8125-5.988281v-13.75zm0 0" fill="#fecbaa"/><path d="m263.761719 285.269531v52.34375c0 7.898438-4.109375 15.230469-10.832031 19.332031l-19.539063 11.914063c-7.214844 4.398437-16.261719 4.398437-23.476563 0l-19.539062-11.914063c-6.734375-4.101562-10.832031-11.433593-10.832031-19.332031v-52.34375c0-14.402343 11.644531-26.070312 26.011719-26.070312h32.195312c14.367188 0 26.011719 11.667969 26.011719 26.070312zm0 0" fill="#fedfc5"/><path d="m237.75 259.199219h-16.320312c14.367187 0 26.015624 11.667969 26.015624 26.070312v52.34375c0 7.898438-4.113281 15.230469-10.835937 19.332031l-19.535156 11.914063c-1.152344.699219-2.351563 1.277344-3.582031 1.753906 6.476562 2.519531 13.835937 1.941407 19.898437-1.753906l19.539063-11.914063c6.722656-4.101562 10.832031-11.433593 10.832031-19.332031v-52.34375c0-14.402343-11.644531-26.070312-26.011719-26.070312zm0 0" fill="#fecbaa"/><path d="m263.761719 285.269531v24.316407l-52.800781-17.015626c-1.953126-.628906-4.078126-.449218-5.894532.503907l-25.523437 13.335937v-21.140625c0-14.402343 11.648437-26.070312 26.015625-26.070312h32.191406c14.367188 0 26.011719 11.667969 26.011719 26.070312zm0 0" fill="#c97f4c"/><path d="m237.75 259.199219h-16.3125c14.367188 0 26.015625 11.667969 26.015625 26.070312v19.0625l16.308594 5.257813v-24.320313c0-14.402343-11.644531-26.070312-26.011719-26.070312zm0 0" fill="#aa6344"/><path d="m133.773438 504.667969v-43.828125c0-20.871094 13.292968-39.414063 33.035156-46.066406l15.726562-5.296876c3.550782-1.195312 6.707032-3.109374 9.328125-5.550781 8.441407 3.066407 18.378907 5.132813 29.613281 4.894531 11.066407-.242187 20.742188-2.671874 28.886719-5.957031 2.820313 2.957031 6.355469 5.253907 10.410157 6.613281l15.726562 5.296876c19.734375 6.652343 33.035156 25.195312 33.035156 46.066406v43.828125zm0 0" fill="#83d9ff"/><path d="m220.632812 408.960938-18.492187 65.410156c-.476563 1.6875-.058594 3.503906 1.113281 4.808594l13.761719 15.355468c1.960937 2.191406 5.363281 2.277344 7.433594.1875l15.3125-15.449218c1.335937-1.347657 1.816406-3.320313 1.25-5.128907zm0 0" fill="#43a3f9"/><path d="m411.355469 424.421875-12.785157-4.304687c-2.058593-.6875-3.921874-1.871094-5.410156-3.433594-2.410156-2.515625-3.738281-5.835938-3.738281-9.34375v-13.722656l4.300781-2.621094c7.648438-4.660156 12.398438-13.125 12.398438-22.089844v-22.660156c0-.019532 0-.042969 0-.0625v-19.773438c0-15.804687-12.84375-28.660156-28.628906-28.660156h-26.15625c-15.785157 0-28.628907 12.855469-28.628907 28.660156v17.039063.027343 25.429688c0 8.964844 4.75 17.429688 12.398438 22.089844l4.304687 2.625v13.71875c0 3.746094-1.566406 7.355468-4.292968 9.898437-1.398438 1.296875-3.035157 2.269531-4.867188 2.882813l-12.773438 4.300781c-3.597656 1.214844-6.96875 2.835937-10.113281 4.824219-3.171875-4.675782-7.035156-8.886719-11.445312-12.40625-3.238281-2.582032-7.957031-2.050782-10.542969 1.1875-2.582031 3.238281-2.050781 7.957031 1.1875 10.539062 5.011719 4 9.074219 9.199219 11.75 15.035156 2.46875 5.394532 3.722656 11.152344 3.722656 17.097657v43.800781c0 4.144531 3.355469 7.5 7.5 7.5 4.140625 0 7.5-3.355469 7.5-7.5v-43.800781c0-6.15625-.988281-12.160157-2.9375-17.921875 2.488282-1.753906 5.21875-3.144532 8.167969-4.140625l12.773437-4.296875c2.371094-.800782 4.589844-1.886719 6.640626-3.246094 3.996093 1.199219 8.0625 2.058594 12.179687 2.5625l-13.132813 46.414062c-.699218 2.472657-.082031 5.132813 1.632813 7.046876l15.644531 17.445312c1.378906 1.535156 3.332032 2.4375 5.394532 2.488281.0625.003907.128906.003907.1875.003907 2 0 3.917968-.796876 5.328124-2.21875l17.296876-17.445313c1.960937-1.972656 2.664062-4.867187 1.835937-7.519531l-14.535156-46.445313c4.289062-.628906 8.515625-1.636719 12.652343-3.015625 2.324219 1.683594 4.902344 3.015625 7.632813 3.929688l12.769531 4.296875c13 4.378906 21.734375 16.550781 21.734375 30.285156v35.578125c0 4.140625 3.359375 7.5 7.5 7.5s7.5-3.359375 7.5-7.5v-35.578125c.003907-20.179687-12.835937-38.0625-31.945312-44.5zm-47.238281-5.222656c-4.007813.085937-7.976563-.25-11.882813-.96875 1.417969-3.425781 2.179687-7.125 2.179687-10.890625v-4.914063c3.203126 1.351563 6.601563 2.035157 10 2.035157 3.402344 0 6.804688-.683594 10.007813-2.039063v4.917969c0 3.570312.664063 7.050781 1.910156 10.289062-4.003906.945313-8.089843 1.480469-12.214843 1.570313zm-12.777344-106.449219h26.152344c7.515624 0 13.628906 6.128906 13.628906 13.660156v9.445313l-35.570313-11.449219c-1.914062-.617188-3.992187-.4375-5.769531.492188l-12.070312 6.300781v-4.789063c0-7.53125 6.113281-13.660156 13.628906-13.660156zm-13.628906 35.371094 16.230468-8.476563 37.179688 11.96875v17.292969c0 3.769531-1.992188 7.324219-5.207032 9.28125l-15.867187 9.675781c-3.472656 2.117188-7.789063 2.117188-11.261719 0l-15.867187-9.675781c-3.214844-1.957031-5.207031-5.515625-5.207031-9.28125zm26.152343 140.503906-7.578125-8.445312 7.664063-27.09375 8.433593 26.949218zm0 0"/><path d="m267.203125 403.621094-4.058594-1.367188c-2.78125-.925781-5.328125-2.539062-7.363281-4.667968-3.273438-3.421876-5.078125-7.929688-5.078125-12.695313v-17.871094l6.125-3.734375c8.902344-5.425781 14.433594-15.28125 14.433594-25.71875v-27.917968c0-.019532 0-.042969 0-.0625v-24.335938c0-18.5-15.035157-33.550781-33.511719-33.550781h-32.199219c-18.480469 0-33.515625 15.050781-33.515625 33.550781v21.007812.027344 31.28125c0 10.4375 5.53125 20.289063 14.433594 25.71875l6.132812 3.738282v17.867187c0 5.082031-2.132812 9.988281-5.851562 13.453125-1.898438 1.765625-4.121094 3.082031-6.617188 3.921875l-15.714843 5.296875c-11.632813 3.914062-21.644531 11.617188-28.480469 21.683594-3.148438-1.992188-6.523438-3.617188-10.113281-4.824219l-12.785157-4.304687c-2.078124-.695313-3.898437-1.847657-5.414062-3.4375-2.40625-2.511719-3.734375-5.832032-3.734375-9.339844v-13.722656l4.300781-2.621094c7.648438-4.660156 12.398438-13.125 12.398438-22.089844v-22.660156c0-.019532 0-.042969 0-.0625v-19.773438c0-15.804687-12.84375-28.660156-28.628906-28.660156h-26.15625c-15.785157 0-28.628907 12.855469-28.628907 28.660156v17.039063.027343 25.429688c0 8.964844 4.753907 17.429688 12.402344 22.089844l4.300781 2.625v13.71875c0 3.742187-1.566406 7.351562-4.292968 9.898437-1.394532 1.292969-3.035157 2.265625-4.867188 2.882813l-12.769531 4.300781c-19.109375 6.433594-31.949219 24.316406-31.949219 44.5v35.578125c0 4.140625 3.359375 7.5 7.5 7.5s7.5-3.359375 7.5-7.5v-35.578125c0-13.738281 8.734375-25.90625 21.734375-30.285156l12.769531-4.296875c2.375-.800782 4.59375-1.886719 6.644532-3.246094 3.992187 1.199219 8.0625 2.058594 12.179687 2.5625l-13.132813 46.414062c-.699218 2.472657-.082031 5.132813 1.632813 7.046876l15.644531 17.445312c1.378906 1.535156 3.332032 2.4375 5.394532 2.488281.0625 0 .128906.003907.1875.003907 2 0 3.917968-.796876 5.328124-2.21875l17.296876-17.445313c1.960937-1.972656 2.664062-4.867187 1.835937-7.519531l-14.53125-46.449219c4.285156-.625 8.511719-1.636719 12.652344-3.011719 2.324219 1.683594 4.90625 3.015625 7.628906 3.925782l12.773437 4.300781c2.9375.988281 5.667969 2.382812 8.164063 4.140625-1.945313 5.757812-2.933594 11.761718-2.933594 17.921875v43.800781c0 4.140625 3.355469 7.5 7.5 7.5 4.140625 0 7.5-3.359375 7.5-7.5v-43.800781c0-5.949219 1.25-11.703125 3.71875-17.097657 4.703125-10.277343 13.527344-18.230468 24.214844-21.824218l15.707031-5.296875c3.039063-1.015625 5.855469-2.445313 8.4375-4.246094 5.730469 1.777344 11.59375 2.957031 17.527344 3.546875l-16.722656 59.113281c-.699219 2.472657-.082032 5.132813 1.632812 7.046875l19.261719 21.476563c1.378906 1.535156 3.328125 2.4375 5.394531 2.488281.0625 0 .125.003906.1875.003906 1.996094 0 3.914063-.796875 5.324219-2.21875l21.300781-21.472656c1.957032-1.976562 2.660156-4.871094 1.832032-7.523438l-18.503907-59.140624c6.171875-.757813 12.25-2.160157 18.179688-4.199219 2.902343 2.21875 6.15625 3.96875 9.609375 5.121093l4.035156 1.359376c.792969.269531 1.601562.394531 2.394531.394531 3.128907 0 6.050781-1.976563 7.105469-5.105469 1.332031-3.925781-.78125-8.179688-4.703125-9.503906zm-188.617187 15.578125c-4.003907.085937-7.972657-.25-11.878907-.96875 1.414063-3.425781 2.175781-7.125 2.175781-10.890625v-4.917969c3.203126 1.355469 6.601563 2.039063 10.003907 2.039063 3.402343 0 6.800781-.6875 10.007812-2.039063v4.917969c0 3.570312.660157 7.046875 1.910157 10.289062-4.007813.945313-8.089844 1.480469-12.21875 1.570313zm-12.777344-106.449219h26.15625c7.515625 0 13.628906 6.128906 13.628906 13.660156v9.445313l-35.574219-11.449219c-1.910156-.617188-3.988281-.4375-5.769531.492188l-12.070312 6.300781v-4.789063c0-7.53125 6.113281-13.660156 13.628906-13.660156zm-13.628906 35.371094 16.234374-8.476563 37.179688 11.96875v17.292969c0 3.769531-1.996094 7.324219-5.207031 9.28125l-15.867188 9.675781c-3.476562 2.113281-7.792969 2.117188-11.261719 0l-15.871093-9.675781c-3.210938-1.957031-5.207031-5.515625-5.207031-9.28125zm26.15625 140.503906-7.578126-8.445312 7.664063-27.09375 8.433594 26.949218zm142.984374-87.40625c-5.789062.125-11.523437-.425781-17.140624-1.632812 2.222656-4.535157 3.421874-9.566407 3.421874-14.695313v-8.796875c4.410157 2.335938 9.226563 3.511719 14.050782 3.511719 4.820312 0 9.640625-1.179688 14.050781-3.515625v8.800781c0 4.851563 1.035156 9.5625 2.992187 13.859375-5.679687 1.503906-11.492187 2.34375-17.375 2.46875zm-15.769531-134.519531h32.199219c10.207031 0 18.511719 8.320312 18.511719 18.550781v14.007812l-46.058594-14.824218c-1.910156-.617188-3.988281-.441406-5.769531.492187l-17.394532 9.082031v-8.757812c0-10.230469 8.304688-18.550781 18.511719-18.550781zm-18.511719 70.867187v-26.636718l21.554688-11.257813 47.667969 15.34375v22.550781c0 5.238282-2.773438 10.1875-7.238281 12.910156l-19.539063 11.910157c-4.832031 2.945312-10.835937 2.941406-15.667969 0l-19.535156-11.910157c-4.46875-2.722656-7.242188-7.671874-7.242188-12.910156zm33.871094 149.917969-11.195312-12.480469 11.28125-39.871094 12.429687 39.730469zm0 0"/><path d="m406.121094 167.078125v-134.269531c0-18.089844-14.714844-32.808594-32.804688-32.808594h-303.328125c-18.089843 0-32.808593 14.71875-32.808593 32.808594v21.691406c0 4.140625 3.359374 7.5 7.5 7.5 4.144531 0 7.5-3.359375 7.5-7.5v-21.691406c0-9.820313 7.988281-17.808594 17.808593-17.808594h303.328125c9.816406 0 17.804688 7.988281 17.804688 17.808594v134.269531c0 9.820313-7.988282 17.808594-17.804688 17.808594h-100.828125c-7.410156 0-14.101562 4.363281-17.039062 11.121093-5.855469 13.460938-19.121094 22.15625-33.796875 22.15625-14.675782 0-27.941406-8.695312-33.792969-22.15625-2.9375-6.757812-9.628906-11.121093-17.042969-11.121093h-100.828125c-9.820312 0-17.808593-7.988281-17.808593-17.808594v-79.078125c0-4.140625-3.355469-7.5-7.5-7.5-4.140626 0-7.5 3.359375-7.5 7.5v79.078125c0 18.089844 14.71875 32.808594 32.808593 32.808594h100.828125c1.441406 0 2.730469.824219 3.285156 2.101562 7.226563 16.617188 22.476563 28.070313 40.050782 30.632813v3.710937c0 4.144531 3.359375 7.5 7.5 7.5 4.144531 0 7.5-3.355469 7.5-7.5v-3.710937c17.574218-2.5625 32.824218-14.019532 40.050781-30.632813.558594-1.277343 1.847656-2.101562 3.285156-2.101562h100.828125c18.089844 0 32.804688-14.71875 32.804688-32.808594zm0 0"/><path d="m107.1875 66.5h228.933594c4.140625 0 7.5-3.359375 7.5-7.5s-3.359375-7.5-7.5-7.5h-228.933594c-4.144531 0-7.5 3.359375-7.5 7.5s3.355469 7.5 7.5 7.5zm0 0"/><path d="m107.1875 108.167969h228.933594c4.140625 0 7.5-3.359375 7.5-7.5 0-4.144531-3.359375-7.5-7.5-7.5h-228.933594c-4.144531 0-7.5 3.355469-7.5 7.5 0 4.140625 3.355469 7.5 7.5 7.5zm0 0"/><path d="m161.027344 134.832031c-4.140625 0-7.5 3.359375-7.5 7.5 0 4.144531 3.359375 7.5 7.5 7.5h121.25c4.144531 0 7.5-3.355469 7.5-7.5 0-4.140625-3.355469-7.5-7.5-7.5zm0 0"/></svg>